<?xml version="1.0" standalone="no"?>
<!DOCTYPE svg PUBLIC "-//W3C//DTD SVG 20010904//EN"
 "http://www.w3.org/TR/2001/REC-SVG-20010904/DTD/svg10.dtd">
<svg version="1.0" xmlns="http://www.w3.org/2000/svg"
 width="134.000000pt" height="134.000000pt" viewBox="0 0 134.000000 134.000000"
 preserveAspectRatio="xMidYMid meet">
<metadata>
Created by potrace 1.11, written by Peter Selinger 2001-2013
</metadata>
<g transform="translate(0.000000,134.000000) scale(0.100000,-0.100000)"
fill="#000000" stroke="none">
<path d="M640 1325 c-14 -8 -21 -14 -16 -15 6 0 -1 -10 -13 -21 -13 -12 -41
-49 -62 -83 -21 -34 -43 -66 -48 -72 -5 -7 -7 -15 -3 -18 3 -4 1 -10 -5 -14
-6 -4 -13 -16 -15 -27 -1 -11 -5 -22 -8 -25 -12 -12 -37 -100 -28 -100 7 0 6
-5 -1 -13 -6 -8 -8 -17 -4 -20 3 -4 2 -7 -4 -7 -6 0 -9 -11 -8 -25 2 -14 -2
-25 -8 -25 -8 0 -7 -3 1 -9 17 -11 17 -21 0 -32 -7 -5 -8 -9 -3 -9 6 0 11 -20
12 -45 1 -32 -2 -43 -10 -38 -9 5 -9 3 0 -8 6 -8 13 -28 16 -46 3 -17 8 -37
13 -44 4 -8 3 -10 -4 -5 -7 4 -12 2 -12 -3 0 -6 5 -11 10 -11 18 0 11 -18 -20
-52 -16 -18 -30 -29 -30 -25 0 6 -26 -12 -56 -41 -16 -15 -20 -77 -4 -67 6 3
10 1 10 -4 0 -6 -5 -11 -11 -11 -8 0 -7 -6 2 -17 12 -14 12 -15 1 -9 -12 7
-12 4 -2 -14 6 -12 9 -27 7 -35 -3 -7 0 -18 6 -24 6 -6 8 -11 4 -11 -4 0 -3
-9 3 -20 8 -14 8 -20 0 -20 -7 0 -8 -6 -1 -19 6 -10 8 -21 5 -24 -3 -3 -2 -12
2 -19 11 -17 11 -39 1 -62 -7 -14 -6 -16 4 -11 8 6 11 4 7 -7 -4 -8 2 -22 12
-31 18 -15 21 -13 55 26 20 23 50 57 66 74 16 18 29 37 29 43 0 5 7 10 16 10
8 0 13 4 9 9 -3 6 3 14 13 20 19 10 19 13 10 -94 -2 -16 -9 -34 -16 -38 -10
-7 -10 -12 -1 -23 8 -10 8 -14 0 -14 -6 0 -11 -11 -11 -25 0 -14 -3 -25 -7
-25 -5 0 -9 -11 -9 -25 l-2 -25 160 0 c149 0 160 1 147 17 -12 15 -12 16 1 8
11 -6 10 -3 -3 12 -9 11 -14 23 -10 26 3 4 1 7 -5 7 -6 0 -9 9 -7 20 2 11 -1
20 -7 20 -6 0 -8 3 -5 6 3 4 2 14 -3 23 -5 10 -11 35 -13 57 -3 21 -7 44 -9
51 -3 11 1 13 24 13 6 0 9 -3 5 -6 -6 -7 5 -22 41 -59 12 -12 22 -27 22 -34 0
-6 4 -11 10 -11 5 0 20 -15 32 -32 13 -18 33 -34 46 -36 22 -3 25 3 25 61 0 9
5 17 11 17 6 0 4 5 -4 10 -8 5 -10 10 -3 10 6 0 10 13 9 30 -1 16 1 30 5 30 4
0 6 12 3 26 -3 19 -1 24 8 18 10 -6 9 -3 -1 9 -10 13 -10 17 -1 17 9 0 9 4 -1
17 -10 11 -10 14 -1 9 9 -5 12 11 12 73 l0 79 -42 36 c-23 20 -45 36 -49 36
-14 0 -32 42 -22 49 5 3 9 18 8 34 -1 15 1 27 5 27 4 0 6 20 5 45 -1 25 3 45
7 45 5 0 6 5 2 11 -4 6 -7 38 -6 70 0 34 -4 59 -10 59 -6 0 -5 6 2 15 10 12
10 15 0 15 -7 0 -10 8 -7 20 3 11 1 20 -3 20 -5 0 -7 9 -5 20 2 11 0 20 -6 20
-5 0 -9 8 -9 18 0 10 -3 22 -7 26 -5 4 -8 11 -8 14 0 16 -68 142 -77 142 -5 0
-7 4 -4 9 7 11 -97 121 -115 121 -8 -1 -25 -7 -39 -15z"/>
</g>
</svg>
